HIERARCHY
ROOT joint_Root
{
	OFFSET 0.0 0.0 0.0
	CHANNELS 6 Xposition Yposition Zposition Zrotation Xrotation Yrotation 
	JOINT Hips
	{
		OFFSET 4.5925 91.4895 -427.239
		CHANNELS 6 Xposition Yposition Zposition Zrotation Xrotation Yrotation 
		JOINT Spine
		{
			OFFSET 15.7357 0.0 0.0
			CHANNELS 6 Xposition Yposition Zposition Zrotation Xrotation Yrotation 
			JOINT Chest
			{
				OFFSET 8.98455 -0.406207 0.0
				CHANNELS 6 Xposition Yposition Zposition Zrotation Xrotation Yrotation 
				JOINT Neck
				{
					OFFSET 16.3773 0.0 0.0
					CHANNELS 6 Xposition Yposition Zposition Zrotation Xrotation Yrotation 
					JOINT Head
					{
						OFFSET 6.45672 0.0 0.0
						CHANNELS 6 Xposition Yposition Zposition Zrotation Xrotation Yrotation 
						End Site
						{
							OFFSET 0.0 0.0 0.0
						}
					}
				}
				JOINT Shoulder_L
				{
					OFFSET 12.9942 -0.242716 4.98039
					CHANNELS 6 Xposition Yposition Zposition Zrotation Xrotation Yrotation 
					JOINT UpperArm_L
					{
						OFFSET 5.34809 0.0 0.0
						CHANNELS 6 Xposition Yposition Zposition Zrotation Xrotation Yrotation 
						JOINT LowerArm_L
						{
							OFFSET 24.3286 1.87007e-05 0.0
							CHANNELS 6 Xposition Yposition Zposition Zrotation Xrotation Yrotation 
							JOINT Hand_L
							{
								OFFSET 22.2916 0.0 0.0
								CHANNELS 6 Xposition Yposition Zposition Zrotation Xrotation Yrotation 
								End Site
								{
									OFFSET 0.0 0.0 0.0
								}
							}
						}
					}
				}
				JOINT Shoulder_R
				{
					OFFSET 12.9945 -0.242716 -4.98039
					CHANNELS 6 Xposition Yposition Zposition Zrotation Xrotation Yrotation 
					JOINT UpperArm_R
					{
						OFFSET -5.34813 0.0 0.0
						CHANNELS 6 Xposition Yposition Zposition Zrotation Xrotation Yrotation 
						JOINT LowerArm_R
						{
							OFFSET -24.3289 0.000322201 0.0
							CHANNELS 6 Xposition Yposition Zposition Zrotation Xrotation Yrotation 
							JOINT Hand_R
							{
								OFFSET -22.2915 -0.000108084 0.0
								CHANNELS 6 Xposition Yposition Zposition Zrotation Xrotation Yrotation 
								End Site
								{
									OFFSET 0.0 0.0 0.0
								}
							}
						}
					}
				}
			}
		}
		JOINT UpperLeg_L
		{
			OFFSET -2.19248 -6.46944 0.0
			CHANNELS 6 Xposition Yposition Zposition Zrotation Xrotation Yrotation 
			JOINT LowerLeg_L
			{
				OFFSET 39.0811 0.0 -1.23785e-05
				CHANNELS 6 Xposition Yposition Zposition Zrotation Xrotation Yrotation 
				JOINT Foot_L
				{
					OFFSET 40.9854 0.0 -1.26872e-05
					CHANNELS 6 Xposition Yposition Zposition Zrotation Xrotation Yrotation 
					JOINT Toes_L
					{
						OFFSET 11.7543 0.0 0.0
						CHANNELS 6 Xposition Yposition Zposition Zrotation Xrotation Yrotation 
						End Site
						{
							OFFSET 0.0 0.0 0.0
						}
					}
				}
			}
		}
		JOINT UpperLeg_R
		{
			OFFSET -2.19251 6.46944 0.0
			CHANNELS 6 Xposition Yposition Zposition Zrotation Xrotation Yrotation 
			JOINT LowerLeg_R
			{
				OFFSET -39.0811 -0.00228153 -0.0401928
				CHANNELS 6 Xposition Yposition Zposition Zrotation Xrotation Yrotation 
				JOINT Foot_R
				{
					OFFSET -40.9854 0.0 0.0
					CHANNELS 6 Xposition Yposition Zposition Zrotation Xrotation Yrotation 
					JOINT Toes_R
					{
						OFFSET -11.7543 0.0 0.0
						CHANNELS 6 Xposition Yposition Zposition Zrotation Xrotation Yrotation 
						End Site
						{
							OFFSET 0.0 0.0 0.0
						}
					}
				}
			}
		}
	}
}
MOTION
Frames:	4
Frame Time:	0.0333333
0.000000 0.000000 0.000000 0.000000 0.000000 -0.000000 7.497100 88.978800 -448.031000 92.068000 -6.839100 -17.320200 15.735700 0.000005 -0.000001 108.105000 80.629000 -110.185000 8.984550 -0.406207 -0.000000 10.194000 5.742840 -4.672150 16.377300 -0.000001 -0.000001 3.351320 -3.692440 1.711680 6.456720 -0.000001 -0.000000 -8.766260 -5.738210 0.215699 12.994200 -0.242716 4.980390 -86.712200 -9.504250 -70.817700 5.348090 -0.000007 -0.000001 -63.690500 6.057280 26.247700 24.328600 0.000019 0.000005 14.198800 16.621500 -41.493700 22.291600 -0.000001 0.000005 3.438080 5.521890 -7.444130 12.994500 -0.242716 -4.980390 90.280600 -1.614260 -80.138500 -5.348130 -0.000001 -0.000004 -58.491900 11.602300 -45.296800 -24.328900 0.000322 -0.000009 -5.651420 -0.290772 -87.063700 -22.291500 -0.000108 -0.000004 14.563700 5.429720 -3.927470 -2.192480 -6.469440 -0.000000 177.237000 -2.546320 -52.057700 39.081100 -0.000007 -0.000012 -0.014746 0.012757 49.143100 40.985400 -0.000006 -0.000013 -4.889390 0.750976 -74.123200 11.754300 -0.000000 0.000003 -0.003136 -0.042140 -18.290600 -2.192510 6.469440 -0.000001 168.506000 11.114900 -178.624000 -39.081100 -0.002282 -0.040193 0.152906 -0.234921 32.491100 -40.985400 0.000008 0.000006 2.033420 5.300080 -32.134900 -11.754300 -0.000006 -0.000006 -0.018246 -0.157373 -22.999600
0.000000 0.000000 0.000000 0.000000 0.000000 -0.000000 7.270270 88.057300 -439.384000 90.879100 -6.709120 -15.217200 15.735700 0.000005 -0.000001 107.138000 80.009300 -109.219000 8.984550 -0.406207 -0.000000 11.480000 5.773890 -4.743910 16.377300 -0.000001 -0.000001 2.435250 -3.617270 2.125970 6.456720 -0.000001 -0.000000 -8.253850 -5.673810 0.959627 12.994200 -0.242716 4.980390 -87.855400 -6.414990 -71.472100 5.348090 -0.000007 -0.000001 -64.930100 3.212250 22.049900 24.328600 0.000019 0.000005 13.002200 14.790000 -42.130700 22.291600 -0.000001 0.000005 4.603890 5.510230 -6.950660 12.994500 -0.242716 -4.980390 89.970900 0.181887 -80.879600 -5.348130 -0.000001 -0.000004 -61.633500 16.224800 -37.035700 -24.328900 0.000322 -0.000009 -6.887000 -1.498560 -77.791100 -22.291500 -0.000108 -0.000004 15.510800 5.458740 -4.955970 -2.192480 -6.469440 -0.000000 175.407000 -6.850470 -46.857600 39.081100 -0.000007 -0.000012 0.385300 -0.432610 41.690100 40.985400 -0.000006 -0.000013 -0.000931 1.143520 -75.790600 11.754300 -0.000000 0.000003 -0.003411 -0.045174 -18.414100 -2.192510 6.469440 -0.000001 171.872000 3.613560 -178.851000 -39.081100 -0.002282 -0.040193 0.135953 -0.138721 43.726000 -40.985400 0.000008 0.000006 2.692920 1.551720 -31.951400 -11.754300 -0.000006 -0.000006 -0.020390 -0.169437 -23.496400
0.000000 0.000000 0.000000 0.000000 0.000000 -0.000000 7.370930 86.313000 -430.911000 91.329600 -5.332660 -14.555600 15.735700 0.000005 -0.000001 102.218000 80.051200 -104.689000 8.984550 -0.406207 -0.000000 11.796700 4.088940 -5.363640 16.377300 -0.000001 -0.000001 1.342400 -3.355750 2.732370 6.456720 -0.000001 -0.000000 -9.444590 -4.974160 1.489720 12.994200 -0.242716 4.980390 -89.425900 -1.839830 -72.673700 5.348090 -0.000007 -0.000001 -64.188000 2.253890 15.290100 24.328600 0.000019 0.000005 11.673900 12.921100 -42.738600 22.291600 -0.000001 0.000005 5.143060 5.516320 -7.205390 12.994500 -0.242716 -4.980390 89.536600 3.132590 -81.580400 -5.348130 -0.000001 -0.000004 -64.113400 19.105000 -29.037100 -24.328900 0.000322 -0.000009 -8.846380 -4.257100 -64.507000 -22.291500 -0.000108 -0.000004 13.328900 5.460780 -5.027530 -2.192480 -6.469440 -0.000000 173.073000 -9.358280 -47.124200 39.081100 -0.000007 -0.000012 0.181543 -0.166795 47.423900 40.985400 -0.000006 -0.000013 3.198050 -2.321950 -66.076100 11.754300 -0.000000 0.000003 -0.000000 -0.000001 -16.577500 -2.192510 6.469440 -0.000001 173.916000 1.626840 175.351000 -39.081100 -0.002282 -0.040193 0.093565 -0.047650 62.200600 -40.985400 0.000008 0.000006 3.299040 1.642300 -33.957500 -11.754300 -0.000006 -0.000006 -0.023188 -0.184347 -24.111400
0.000000 0.000000 0.000000 0.000000 0.000000 -0.000000 7.608010 83.277300 -422.705000 93.272000 -2.686990 -12.563700 15.735700 0.000005 -0.000001 94.655800 79.765600 -97.622500 8.984550 -0.406207 -0.000000 12.685100 1.518180 -6.102170 16.377300 -0.000001 -0.000001 -0.970237 -3.631760 2.392720 6.456720 -0.000001 -0.000000 -9.478980 -4.809540 2.635190 12.994200 -0.242716 4.980390 -90.829100 2.786330 -73.421600 5.348090 -0.000007 -0.000001 -61.484900 5.879580 4.156200 24.328600 0.000019 0.000005 9.885150 10.898600 -42.665600 22.291600 -0.000001 0.000005 5.544420 5.529850 -7.787700 12.994500 -0.242716 -4.980390 88.928300 7.289300 -81.612900 -5.348130 -0.000001 -0.000004 -63.850800 20.462400 -20.858200 -24.328900 0.000322 -0.000009 -9.252540 -8.000310 -49.495700 -22.291500 -0.000108 -0.000004 7.853640 5.438700 -4.236790 -2.192480 -6.469440 -0.000000 173.009000 -5.126150 -44.299900 39.081100 -0.000007 -0.000012 -0.259911 0.159042 58.538000 40.985400 -0.000006 -0.000013 1.653140 -4.189000 -77.596800 11.754300 -0.000000 0.000003 -0.000045 -0.000521 -16.597800 -2.192510 6.469440 -0.000001 173.679000 3.460280 166.871000 -39.081100 -0.002282 -0.040193 0.095122 -0.008177 84.961400 -40.985400 0.000008 0.000006 2.618990 4.955120 -34.586400 -11.754300 -0.000006 -0.000006 -0.024316 -0.190121 -24.349900
